<?xml version="1.0" standalone="no"?>
<!DOCTYPE svg PUBLIC "-//W3C//DTD SVG 20010904//EN"
 "http://www.w3.org/TR/2001/REC-SVG-20010904/DTD/svg10.dtd">
<svg version="1.0" xmlns="http://www.w3.org/2000/svg"
 width="540.000000pt" height="540.000000pt" viewBox="0 0 540.000000 540.000000"
 preserveAspectRatio="xMidYMid meet">
<metadata>
Created by potrace 1.11, written by Peter Selinger 2001-2013
</metadata>
<g transform="translate(0.000000,540.000000) scale(0.100000,-0.100000)"
fill="#000000" stroke="none">
<path d="M1625 4831 c-83 -38 -118 -105 -119 -227 0 -106 27 -165 98 -208 103
-64 237 -35 299 65 56 90 45 251 -21 323 -60 64 -175 85 -257 47z"/>
<path d="M1528 2493 c-3 -1388 -4 -1471 -21 -1514 -23 -60 -79 -124 -129 -150
-75 -38 -276 -41 -411 -6 l-57 15 0 -153 0 -153 48 -16 c116 -37 304 -46 452
-22 105 17 156 37 241 92 98 65 157 143 202 269 53 151 52 109 52 1660 l0
1440 -187 3 -188 2 -2 -1467z"/>
<path d="M2542 3818 l3 -143 607 -5 608 -5 -117 -165 c-106 -150 -187 -266
-518 -740 -59 -85 -138 -198 -175 -250 -37 -52 -162 -231 -279 -398 l-211
-303 0 -124 0 -125 875 0 875 0 0 140 c0 137 -1 140 -22 145 -13 3 -308 4
-656 3 -347 -2 -632 1 -632 5 0 4 51 81 114 170 63 89 131 185 150 212 19 28
88 125 153 217 65 92 154 218 197 280 207 295 486 692 540 768 33 47 75 107
93 134 l34 49 -3 136 -3 136 -818 3 -818 2 3 -142z"/>
</g>
</svg>
