<?xml version="1.0" standalone="no"?>
<!DOCTYPE svg PUBLIC "-//W3C//DTD SVG 20010904//EN"
 "http://www.w3.org/TR/2001/REC-SVG-20010904/DTD/svg10.dtd">
<svg version="1.0" xmlns="http://www.w3.org/2000/svg"
 width="600.000000pt" height="600.000000pt" viewBox="0 0 600.000000 600.000000"
 preserveAspectRatio="xMidYMid meet">
<metadata>
Created by potrace 1.11, written by Peter Selinger 2001-2013
</metadata>
<g transform="translate(0.000000,600.000000) scale(0.100000,-0.100000)"
fill="#000000" stroke="none">
<path d="M1878 5467 c-113 -32 -168 -116 -168 -257 0 -99 10 -139 45 -190 40
-58 108 -90 191 -90 167 1 251 105 242 299 -4 77 -8 96 -34 137 -53 86 -172
129 -276 101z"/>
<path d="M1740 2833 c0 -1176 -3 -1645 -11 -1692 -24 -135 -76 -214 -176 -263
-67 -33 -69 -33 -203 -33 -119 1 -256 19 -317 42 -10 4 -13 -29 -13 -165 l0
-170 33 -11 c120 -38 166 -44 332 -45 201 -1 285 14 414 76 159 76 271 223
321 423 11 44 25 143 30 220 6 80 10 807 10 1693 l0 1552 -210 0 -210 0 0
-1627z"/>
<path d="M2897 4453 c-4 -3 -7 -75 -7 -160 l0 -153 693 0 c382 0 696 -3 699
-6 3 -3 -329 -483 -738 -1067 l-744 -1062 0 -143 0 -142 993 2 992 3 3 158 3
157 -750 0 c-412 0 -752 3 -754 8 -4 6 192 286 1233 1763 l230 327 0 161 0
161 -923 0 c-508 0 -927 -3 -930 -7z"/>
</g>
</svg>
